<svg width="249" height="43" viewBox="0 0 249 43" fill="none" xmlns="http://www.w3.org/2000/svg">
<rect width="170.115" height="43" fill="#4D9EC0"/>
<mask id="mask0_18_3" style="mask-type:alpha" maskUnits="userSpaceOnUse" x="6" y="8" width="26" height="27">
<rect x="6" y="8.94226" width="25.1154" height="25.1154" fill="#D9D9D9"/>
</mask>
<g mask="url(#mask0_18_3)">
<mask id="mask1_18_3" style="mask-type:alpha" maskUnits="userSpaceOnUse" x="9" y="9" width="25" height="25">
<rect x="9.52167" y="9.86786" width="24" height="24" fill="#D9D9D9"/>
</mask>
<g mask="url(#mask1_18_3)">
<path d="M12.5217 22.8679V14.8679C12.5217 14.3179 12.7175 13.847 13.1092 13.4554C13.5008 13.0637 13.9717 12.8679 14.5217 12.8679H20.5217V22.8679H12.5217ZM22.5217 12.8679H28.5217C29.0717 12.8679 29.5425 13.0637 29.9342 13.4554C30.3258 13.847 30.5217 14.3179 30.5217 14.8679V18.8679H22.5217V12.8679ZM22.5217 30.8679V20.8679H30.5217V28.8679C30.5217 29.4179 30.3258 29.8887 29.9342 30.2804C29.5425 30.672 29.0717 30.8679 28.5217 30.8679H22.5217ZM12.5217 24.8679H20.5217V30.8679H14.5217C13.9717 30.8679 13.5008 30.672 13.1092 30.2804C12.7175 29.8887 12.5217 29.4179 12.5217 28.8679V24.8679ZM14.5217 20.8679H18.5217V14.8679H14.5217V20.8679ZM24.5217 16.8679H28.5217V14.8679H24.5217V16.8679ZM24.5217 22.8679V28.8679H28.5217V22.8679H24.5217ZM14.5217 26.8679V28.8679H18.5217V26.8679H14.5217Z" fill="white"/>
</g>
</g>
<path d="M49.2795 14.1797L56.592 30H52.7717L51.5764 27.0703H45.3655L44.1702 30H40.3499L47.6624 14.1797H49.2795ZM48.4827 19.5L46.5139 24.3047H50.4514L48.4827 19.5ZM59.7111 18.1641V19.6641C60.0705 19.2109 60.5002 18.7969 61.0002 18.4219C61.5158 18.0469 62.172 17.8594 62.9689 17.8594C63.797 17.8594 64.547 18.0547 65.2189 18.4453C65.8908 18.8203 66.4142 19.3906 66.7892 20.1562C67.258 19.5156 67.8049 18.9766 68.4299 18.5391C69.0549 18.0859 69.7814 17.8594 70.6095 17.8594C71.4064 17.8594 72.133 18.0469 72.7892 18.4219C73.4455 18.7812 73.9689 19.3203 74.3595 20.0391C74.7658 20.7578 74.9689 21.6562 74.9689 22.7344V30H71.9924L71.9689 23.1328C71.9689 22.3359 71.758 21.7422 71.3361 21.3516C70.9299 20.9609 70.3908 20.7656 69.7189 20.7656C69.2033 20.7656 68.758 20.9297 68.383 21.2578C68.008 21.5703 67.6564 21.9453 67.3283 22.3828V30H64.3517L64.3283 23.1328C64.3283 22.3359 64.1174 21.7422 63.6955 21.3516C63.2892 20.9609 62.758 20.7656 62.1017 20.7656C61.6017 20.7656 61.1564 20.9219 60.7658 21.2344C60.3752 21.5312 60.0236 21.8828 59.7111 22.2891V30H56.7345V18.1641H59.7111ZM83.0099 17.8594C84.0255 17.8594 84.9474 18.1172 85.7755 18.6328C86.6192 19.1328 87.2833 19.8516 87.7677 20.7891C88.2677 21.7266 88.5177 22.8516 88.5177 24.1641C88.5177 25.4766 88.2677 26.5938 87.7677 27.5156C87.2833 28.4375 86.6349 29.1406 85.8224 29.625C85.0255 30.1094 84.1583 30.3516 83.2208 30.3516C82.3458 30.3516 81.5802 30.125 80.9239 29.6719C80.2677 29.2031 79.7677 28.6484 79.4239 28.0078V30H76.4474V13.125H79.4239V19.5C79.8614 19 80.4005 18.6016 81.0411 18.3047C81.6974 18.0078 82.3536 17.8594 83.0099 17.8594ZM82.4005 20.7891C81.8224 20.7891 81.2833 20.9219 80.7833 21.1875C80.2989 21.4375 79.8458 21.7891 79.4239 22.2422V23.9297C79.4083 24.6484 79.5411 25.2656 79.8224 25.7812C80.1192 26.2812 80.502 26.6719 80.9708 26.9531C81.4395 27.2188 81.9395 27.3516 82.4708 27.3516C83.3614 27.3516 84.0724 27.0469 84.6036 26.4375C85.1505 25.8125 85.4239 25.0547 85.4239 24.1641C85.4239 23.5703 85.2989 23.0234 85.0489 22.5234C84.7989 22.0078 84.4474 21.5938 83.9942 21.2812C83.5411 20.9531 83.0099 20.7891 82.4005 20.7891ZM94.6133 17.8594C95.7695 17.8594 96.7617 18.1094 97.5899 18.6094C98.4336 19.1094 99.0742 19.8047 99.5117 20.6953C99.9649 21.5703 100.191 22.5859 100.191 23.7422V25.0078H91.6133C91.7695 25.8047 92.1602 26.4453 92.7852 26.9297C93.4102 27.4141 94.1758 27.6562 95.082 27.6562C95.9414 27.6562 96.7227 27.4844 97.4258 27.1406C98.1289 26.7969 98.6914 26.4453 99.1133 26.0859L99.0899 28.8516C98.7149 29.1797 98.1524 29.5156 97.4024 29.8594C96.668 30.1875 95.8555 30.3516 94.9649 30.3516C93.793 30.3516 92.7227 30.0859 91.7539 29.5547C90.8008 29.0234 90.0352 28.2969 89.457 27.375C88.8945 26.4531 88.6133 25.3984 88.6133 24.2109C88.6133 23.0547 88.8711 22 89.3867 21.0469C89.9024 20.0938 90.6133 19.3281 91.5195 18.75C92.4258 18.1562 93.457 17.8594 94.6133 17.8594ZM94.543 20.4609C93.8086 20.4609 93.1914 20.6875 92.6914 21.1406C92.1914 21.5938 91.8477 22.2031 91.6602 22.9688H97.332C97.2695 22.125 96.957 21.5 96.3945 21.0938C95.832 20.6719 95.2149 20.4609 94.543 20.4609ZM108.443 21.4922C107.943 21.2109 107.42 21.0703 106.873 21.0703C106.185 21.0703 105.615 21.2969 105.162 21.75C104.709 22.1875 104.31 22.7344 103.967 23.3906V30H100.99V18.1641H103.967V20.3906C104.373 19.6875 104.85 19.1016 105.396 18.6328C105.959 18.1641 106.592 17.9297 107.295 17.9297C107.717 17.9297 108.1 18 108.443 18.1406V21.4922ZM134.345 14.2969L129.049 30H126.799L123.306 19.8984L119.814 30H117.564L112.338 14.2969H116.041L118.947 24.2109L122.252 14.2969H124.431L127.689 24.2109L130.642 14.2969H134.345ZM139.668 17.8594C140.824 17.8594 141.816 18.1094 142.644 18.6094C143.488 19.1094 144.129 19.8047 144.566 20.6953C145.019 21.5703 145.246 22.5859 145.246 23.7422V25.0078H136.668C136.824 25.8047 137.215 26.4453 137.84 26.9297C138.465 27.4141 139.23 27.6562 140.136 27.6562C140.996 27.6562 141.777 27.4844 142.48 27.1406C143.183 26.7969 143.746 26.4453 144.168 26.0859L144.144 28.8516C143.769 29.1797 143.207 29.5156 142.457 29.8594C141.722 30.1875 140.91 30.3516 140.019 30.3516C138.847 30.3516 137.777 30.0859 136.808 29.5547C135.855 29.0234 135.09 28.2969 134.511 27.375C133.949 26.4531 133.668 25.3984 133.668 24.2109C133.668 23.0547 133.925 22 134.441 21.0469C134.957 20.0938 135.668 19.3281 136.574 18.75C137.48 18.1562 138.511 17.8594 139.668 17.8594ZM139.597 20.4609C138.863 20.4609 138.246 20.6875 137.746 21.1406C137.246 21.5938 136.902 22.2031 136.715 22.9688H142.386C142.324 22.125 142.011 21.5 141.449 21.0938C140.886 20.6719 140.269 20.4609 139.597 20.4609ZM149.865 17.8594C150.599 17.8594 151.279 17.9688 151.904 18.1875C152.529 18.4062 153.013 18.6562 153.357 18.9375V21.5625C152.982 21.3125 152.521 21.0703 151.974 20.8359C151.443 20.6016 150.888 20.4844 150.31 20.4844C149.748 20.4844 149.302 20.6094 148.974 20.8594C148.646 21.1094 148.482 21.4062 148.482 21.75C148.482 22 148.576 22.2344 148.763 22.4531C148.951 22.6562 149.31 22.8359 149.841 22.9922L151.177 23.4375C152.974 23.9688 153.873 25.0078 153.873 26.5547C153.873 27.2891 153.662 27.9453 153.24 28.5234C152.834 29.0859 152.279 29.5312 151.576 29.8594C150.888 30.1875 150.123 30.3516 149.279 30.3516C148.482 30.3516 147.709 30.2266 146.959 29.9766C146.209 29.7266 145.638 29.4531 145.248 29.1562V26.5547C145.545 26.7578 145.904 26.9531 146.326 27.1406C146.748 27.3281 147.185 27.4844 147.638 27.6094C148.091 27.7188 148.505 27.7734 148.88 27.7734C149.474 27.7734 149.927 27.6719 150.24 27.4688C150.568 27.25 150.732 26.9453 150.732 26.5547C150.732 26.2578 150.599 26.0234 150.334 25.8516C150.068 25.6797 149.677 25.5078 149.162 25.3359L147.709 24.8203C146.802 24.5234 146.177 24.1016 145.834 23.5547C145.49 23.0078 145.318 22.3594 145.318 21.6094C145.318 20.8594 145.505 20.2109 145.88 19.6641C146.271 19.1016 146.81 18.6641 147.498 18.3516C148.185 18.0234 148.974 17.8594 149.865 17.8594ZM158.773 14.7188V18.1641H162.054V20.6484H158.773V25.7578C158.773 26.2891 158.89 26.7109 159.125 27.0234C159.375 27.3203 159.742 27.4688 160.226 27.4688C160.648 27.4688 161.007 27.4219 161.304 27.3281C161.617 27.2344 161.906 27.1016 162.171 26.9297V29.2969C161.875 29.5938 161.5 29.8438 161.046 30.0469C160.609 30.25 160.054 30.3516 159.382 30.3516C158.32 30.3516 157.453 30.0156 156.781 29.3438C156.125 28.6562 155.796 27.7188 155.796 26.5312V20.6484H153.664V19.125C154.414 18.8594 155.101 18.3594 155.726 17.625C156.367 16.8906 156.875 15.9219 157.25 14.7188H158.773Z" fill="white"/>
<rect width="78" height="43" transform="translate(170.115)" fill="#2B7495"/>
<path d="M184.459 13.9219C186.225 13.9219 187.717 14.2812 188.936 15C190.17 15.7188 191.108 16.6953 191.748 17.9297C192.405 19.1484 192.733 20.5312 192.733 22.0781C192.733 23.625 192.405 25.0156 191.748 26.25C191.108 27.4688 190.17 28.4375 188.936 29.1562C187.717 29.875 186.225 30.2344 184.459 30.2344C183.381 30.2344 182.389 30.1797 181.483 30.0703C180.576 29.9609 179.647 29.8203 178.694 29.6484V14.5078C179.647 14.3359 180.576 14.1953 181.483 14.0859C182.389 13.9766 183.381 13.9219 184.459 13.9219ZM184.459 15.9141C183.897 15.9141 183.295 15.9375 182.655 15.9844C182.014 16.0156 181.397 16.0703 180.803 16.1484V28.0078C181.397 28.0703 182.014 28.125 182.655 28.1719C183.295 28.2188 183.897 28.2422 184.459 28.2422C185.725 28.2422 186.811 27.9766 187.717 27.4453C188.639 26.8984 189.342 26.1641 189.826 25.2422C190.326 24.3047 190.576 23.25 190.576 22.0781C190.576 20.9062 190.326 19.8594 189.826 18.9375C189.342 18 188.639 17.2656 187.717 16.7344C186.811 16.1875 185.725 15.9141 184.459 15.9141ZM195.852 12.6562C196.305 12.6562 196.68 12.8203 196.977 13.1484C197.289 13.4609 197.445 13.8281 197.445 14.25C197.445 14.6562 197.289 15.0234 196.977 15.3516C196.68 15.6797 196.305 15.8438 195.852 15.8438C195.399 15.8438 195.016 15.6797 194.703 15.3516C194.406 15.0234 194.258 14.6562 194.258 14.25C194.258 13.8281 194.406 13.4609 194.703 13.1484C195.016 12.8203 195.399 12.6562 195.852 12.6562ZM197.047 18.2812V30H195.125V20.0859H193.274V18.2812H197.047ZM204.104 18.0469C204.775 18.0469 205.455 18.2109 206.143 18.5391C206.846 18.8516 207.447 19.2891 207.947 19.8516V18.2812H209.869V29.7656C209.869 31.1562 209.588 32.3125 209.025 33.2344C208.463 34.1562 207.713 34.8438 206.775 35.2969C205.838 35.75 204.815 35.9766 203.705 35.9766C202.986 35.9766 202.369 35.8906 201.854 35.7188C201.354 35.5625 200.924 35.3594 200.565 35.1094C200.205 34.875 199.877 34.6484 199.58 34.4297V32.3672C199.815 32.5391 200.119 32.7578 200.494 33.0234C200.885 33.3047 201.346 33.5547 201.877 33.7734C202.424 33.9922 203.033 34.1016 203.705 34.1016C204.471 34.1016 205.174 33.9609 205.815 33.6797C206.455 33.3984 206.971 32.9844 207.361 32.4375C207.752 31.8906 207.947 31.2344 207.947 30.4688V28.0078C207.541 28.6328 206.986 29.1797 206.283 29.6484C205.596 30.1172 204.807 30.3516 203.916 30.3516C202.916 30.3516 202.002 30.1016 201.174 29.6016C200.346 29.0859 199.682 28.375 199.182 27.4688C198.697 26.5625 198.455 25.5156 198.455 24.3281C198.455 23.0312 198.697 21.9141 199.182 20.9766C199.682 20.0391 200.361 19.3203 201.221 18.8203C202.08 18.3047 203.041 18.0469 204.104 18.0469ZM204.455 19.9453C203.611 19.9453 202.893 20.1562 202.299 20.5781C201.705 20.9844 201.244 21.5234 200.916 22.1953C200.604 22.8516 200.447 23.5625 200.447 24.3281C200.447 25.0781 200.604 25.7656 200.916 26.3906C201.229 27.0156 201.666 27.5156 202.229 27.8906C202.807 28.2656 203.471 28.4531 204.221 28.4531C204.94 28.4531 205.58 28.2656 206.143 27.8906C206.705 27.5156 207.15 27 207.479 26.3438C207.807 25.6875 207.963 24.9453 207.947 24.1172L207.924 21.8672C207.44 21.2578 206.916 20.7891 206.354 20.4609C205.807 20.1172 205.174 19.9453 204.455 19.9453ZM213.809 12.6562C214.262 12.6562 214.637 12.8203 214.934 13.1484C215.246 13.4609 215.402 13.8281 215.402 14.25C215.402 14.6562 215.246 15.0234 214.934 15.3516C214.637 15.6797 214.262 15.8438 213.809 15.8438C213.355 15.8438 212.973 15.6797 212.66 15.3516C212.363 15.0234 212.215 14.6562 212.215 14.25C212.215 13.8281 212.363 13.4609 212.66 13.1484C212.973 12.8203 213.355 12.6562 213.809 12.6562ZM215.004 18.2812V30H213.082V20.0859H211.23V18.2812H215.004ZM220.467 14.9062V18.2812H223.889V20.0859H220.467V26.9531C220.467 27.4375 220.592 27.8203 220.842 28.1016C221.092 28.3828 221.475 28.5234 221.99 28.5234C222.459 28.5234 222.85 28.4688 223.162 28.3594C223.475 28.2344 223.748 28.1016 223.982 27.9609V29.5312C223.67 29.7812 223.334 29.9766 222.975 30.1172C222.631 30.2734 222.162 30.3516 221.568 30.3516C220.568 30.3516 219.81 30.0547 219.295 29.4609C218.795 28.8516 218.545 28.0469 218.545 27.0469V20.0859H216.295V19.5234C217.06 19.1797 217.701 18.6172 218.217 17.8359C218.732 17.0391 219.185 16.0625 219.576 14.9062H220.467ZM230.289 18.0469C230.961 18.0469 231.64 18.2109 232.328 18.5391C233.031 18.8516 233.633 19.2891 234.133 19.8516V18.2812H236.055V30H234.133V28.0078C233.726 28.6328 233.172 29.1797 232.469 29.6484C231.781 30.1172 230.992 30.3516 230.101 30.3516C229.101 30.3516 228.187 30.1016 227.359 29.6016C226.531 29.0859 225.867 28.375 225.367 27.4688C224.883 26.5625 224.64 25.5156 224.64 24.3281C224.64 23.0312 224.883 21.9141 225.367 20.9766C225.867 20.0391 226.547 19.3203 227.406 18.8203C228.265 18.3047 229.226 18.0469 230.289 18.0469ZM230.64 19.9219C229.797 19.9219 229.078 20.1328 228.484 20.5547C227.89 20.9766 227.43 21.5234 227.101 22.1953C226.789 22.8516 226.633 23.5625 226.633 24.3281C226.633 25.0781 226.789 25.7734 227.101 26.4141C227.414 27.0391 227.851 27.5391 228.414 27.9141C228.992 28.2891 229.656 28.4766 230.406 28.4766C231.125 28.4766 231.765 28.2891 232.328 27.9141C232.89 27.5391 233.336 27.0234 233.664 26.3672C233.992 25.6953 234.148 24.9453 234.133 24.1172L234.109 21.8672C233.625 21.2578 233.101 20.7812 232.539 20.4375C231.992 20.0938 231.359 19.9219 230.64 19.9219ZM240.041 13.125V30H238.119V13.125H240.041Z" fill="white"/>
</svg>
