<svg width="70" height="69" viewBox="0 0 70 69" fill="none" xmlns="http://www.w3.org/2000/svg">
<path d="M26.3748 43.125V25.875L48.6416 56.4937C43.1314 59.9163 36.5366 61.1445 30.1637 59.9348C23.7907 58.7251 18.1047 55.1658 14.2318 49.9621C10.359 44.7584 8.58195 38.2899 9.25273 31.838C9.92351 25.3861 12.9932 19.4214 17.8536 15.1257C22.7141 10.8299 29.0107 8.5165 35.4962 8.64365C41.9816 8.77079 48.1828 11.3293 52.8711 15.8122C57.5595 20.2951 60.393 26.3755 60.8104 32.8488C61.2278 39.322 59.1986 45.7159 55.1248 50.7638" stroke="#297292" stroke-width="5" stroke-linecap="round" stroke-linejoin="round"/>
<path d="M43.625 34.5V25.875" stroke="#297292" stroke-width="5" stroke-linecap="round" stroke-linejoin="round"/>
<path d="M26.3748 43.125V25.875L48.6416 56.4937C43.1314 59.9163 36.5366 61.1445 30.1637 59.9348C23.7907 58.7251 18.1047 55.1658 14.2318 49.9621C10.359 44.7584 8.58195 38.2899 9.25273 31.838C9.92351 25.3861 12.9932 19.4214 17.8536 15.1257C22.7141 10.8299 29.0107 8.5165 35.4962 8.64365C41.9816 8.77079 48.1828 11.3293 52.8711 15.8122C57.5595 20.2951 60.393 26.3755 60.8104 32.8488C61.2278 39.322 59.1986 45.7159 55.1248 50.7638" stroke="#54A6C8" stroke-width="5" stroke-linecap="round" stroke-linejoin="round"/>
<path d="M43.625 34.5V25.875" stroke="#54A6C8" stroke-width="5" stroke-linecap="round" stroke-linejoin="round"/>
</svg>
