<svg width="281" height="179" viewBox="0 0 281 179" fill="none" xmlns="http://www.w3.org/2000/svg">
<path d="M0.125 0H280.125C280.125 17.1208 266.246 31 249.125 31H31.125C14.0042 31 0.125 17.1208 0.125 0Z" fill="url(#paint0_linear_3_253)"/>
<path d="M128.125 128L139.672 108L116.578 108L128.125 128ZM126.125 51L126.125 110L130.125 110L130.125 51L126.125 51Z" fill="url(#paint1_linear_3_253)"/>
<path d="M152.125 51L140.578 71H163.672L152.125 51ZM154.125 128V69H150.125V128H154.125Z" fill="url(#paint2_linear_3_253)"/>
<path d="M0.125 179C0.125 161.879 14.0042 148 31.125 148H249.125C266.246 148 280.125 161.879 280.125 179H0.125Z" fill="url(#paint3_linear_3_253)"/>
<defs>
<linearGradient id="paint0_linear_3_253" x1="0.125" y1="15.5" x2="280.125" y2="15.5" gradientUnits="userSpaceOnUse">
<stop stop-color="#3E894E"/>
<stop offset="1" stop-color="#61C176"/>
</linearGradient>
<linearGradient id="paint1_linear_3_253" x1="127.625" y1="51" x2="127.625" y2="128" gradientUnits="userSpaceOnUse">
<stop offset="0.36" stop-color="#54A6C8"/>
<stop offset="1" stop-color="#478CA9"/>
</linearGradient>
<linearGradient id="paint2_linear_3_253" x1="152.625" y1="128" x2="152.625" y2="51" gradientUnits="userSpaceOnUse">
<stop offset="0.36" stop-color="#54A6C8"/>
<stop offset="1" stop-color="#478CA9"/>
</linearGradient>
<linearGradient id="paint3_linear_3_253" x1="0.125" y1="163.5" x2="280.125" y2="163.5" gradientUnits="userSpaceOnUse">
<stop stop-color="#AC6CCB"/>
<stop offset="1" stop-color="#603973"/>
</linearGradient>
</defs>
</svg>
