<svg width="281" height="182" viewBox="0 0 281 182" fill="none" xmlns="http://www.w3.org/2000/svg">
<path d="M0.125 24C0.125 10.7452 10.8702 0 24.125 0H153.125C166.38 0 177.125 10.7452 177.125 24V48C177.125 61.2548 166.38 72 153.125 72H0.125V24Z" fill="url(#paint0_linear_5_225)"/>
<rect x="63.125" y="31.5" width="9" height="9" rx="1" fill="white"/>
<rect x="84.125" y="31.5" width="9" height="9" rx="1" fill="white"/>
<rect x="105.125" y="31.5" width="9" height="9" rx="1" fill="white"/>
<path d="M81.125 107C81.125 93.7452 91.8702 83 105.125 83H256.125C269.38 83 280.125 93.7452 280.125 107V182H105.125C91.8702 182 81.125 171.255 81.125 158V107Z" fill="url(#paint1_linear_5_225)"/>
<rect x="155.125" y="128" width="9" height="9" rx="1" fill="white"/>
<rect x="176.125" y="128" width="9" height="9" rx="1" fill="white"/>
<rect x="197.125" y="128" width="9" height="9" rx="1" fill="white"/>
<defs>
<linearGradient id="paint0_linear_5_225" x1="165.5" y1="1.33564e-05" x2="-1.55043e-06" y2="62" gradientUnits="userSpaceOnUse">
<stop stop-color="#61C176"/>
<stop offset="1" stop-color="#419453"/>
</linearGradient>
<linearGradient id="paint1_linear_5_225" x1="81" y1="83" x2="280" y2="182" gradientUnits="userSpaceOnUse">
<stop stop-color="#6BB3D1"/>
<stop offset="1" stop-color="#237CA2"/>
</linearGradient>
</defs>
</svg>
