<svg width="70" height="69" viewBox="0 0 70 69" fill="none" xmlns="http://www.w3.org/2000/svg">
<path d="M27.8124 25.875H36.4374" stroke="#54A6C8" stroke-width="5" stroke-linecap="round" stroke-linejoin="round"/>
<path d="M12.0001 25.875H19.1876" stroke="#54A6C8" stroke-width="5" stroke-linecap="round" stroke-linejoin="round"/>
<path d="M32.1249 25.875L40.7499 57.5L52.2499 31.625" stroke="#54A6C8" stroke-width="5" stroke-linecap="round" stroke-linejoin="round"/>
<path d="M16.3126 25.875L26.3751 57.5L35.0001 37.375" stroke="#54A6C8" stroke-width="5" stroke-linecap="round" stroke-linejoin="round"/>
<path d="M52.2501 31.625C52.759 30.107 55.1251 27.7035 55.1251 24.4375C55.1251 19.32 52.8941 17.25 49.7345 17.25C47.1527 17.25 46.5001 19.5845 46.5001 21.3584C46.5001 26.6196 52.2501 27.2751 52.2501 31.625Z" stroke="#54A6C8" stroke-width="5" stroke-linecap="round" stroke-linejoin="round"/>
<path d="M9.125 34.5C9.125 37.898 9.79428 41.2626 11.0946 44.4019C12.395 47.5412 14.3009 50.3937 16.7036 52.7964C19.1063 55.1991 21.9588 57.105 25.0981 58.4054C28.2374 59.7057 31.602 60.375 35 60.375C38.398 60.375 41.7626 59.7057 44.9019 58.4054C48.0412 57.105 50.8937 55.1991 53.2964 52.7964C55.6991 50.3937 57.605 47.5412 58.9054 44.4019C60.2057 41.2626 60.875 37.898 60.875 34.5C60.875 31.102 60.2057 27.7374 58.9054 24.5981C57.605 21.4588 55.6991 18.6063 53.2964 16.2036C50.8937 13.8009 48.0412 11.895 44.9019 10.5946C41.7626 9.29428 38.398 8.625 35 8.625C31.602 8.625 28.2374 9.29428 25.0981 10.5946C21.9588 11.895 19.1063 13.8009 16.7036 16.2036C14.3009 18.6063 12.395 21.4588 11.0946 24.5981C9.79428 27.7374 9.125 31.102 9.125 34.5Z" stroke="#54A6C8" stroke-width="5" stroke-linecap="round" stroke-linejoin="round"/>
</svg>
